<?xml version="1.0" encoding="UTF-8" standalone="no"?>
<!DOCTYPE svg PUBLIC "-//W3C//DTD SVG 1.1//EN" "http://www.w3.org/Graphics/SVG/1.1/DTD/svg11.dtd">
<svg width="100%" height="100%" viewBox="0 0 1800 310" version="1.1" xmlns="http://www.w3.org/2000/svg" xmlns:xlink="http://www.w3.org/1999/xlink" xml:space="preserve" xmlns:serif="http://www.serif.com/" style="fill-rule:evenodd;clip-rule:evenodd;stroke-linejoin:round;stroke-miterlimit:2;">
    <g transform="matrix(1,0,0,0.929974,-4.54747e-13,-644.372)">
        <rect x="0" y="639.128" width="1920" height="440.872" style="fill:url(#_Linear1);"/>
    </g>
    <g transform="matrix(0.0917927,0,0,-0.0917927,26.1233,552.266)">
        <path d="M566,5273C563,5270 560,5254 560,5238C560,5215 556,5210 535,5210C519,5210 510,5204 510,5195C510,5186 519,5180 534,5180C552,5180 560,5174 562,5158C566,5127 590,5123 590,5153C590,5169 597,5179 610,5183C621,5186 630,5193 630,5198C630,5203 621,5210 610,5213C597,5216 590,5227 590,5243C590,5269 578,5285 566,5273Z" style="fill:white;fill-rule:nonzero;"/>
    </g>
    <g transform="matrix(0.0917927,0,0,-0.0917927,-145.188,531.55)">
        <path d="M2040,5186C2040,5148 2037,5141 2015,5136C1978,5127 1985,5103 2023,5109C2027,5110 2036,5097 2041,5080C2055,5042 2066,5042 2073,5079C2077,5099 2086,5110 2101,5112C2130,5116 2138,5140 2111,5140C2088,5140 2070,5167 2070,5204C2070,5220 2064,5230 2055,5230C2044,5230 2040,5218 2040,5186Z" style="fill:white;fill-rule:nonzero;"/>
    </g>
    <g transform="matrix(0.0917927,0,0,-0.0917927,23.4843,500.098)">
        <path d="M303,4563C296,4560 290,4550 290,4539C290,4516 325,4513 333,4534C340,4551 320,4569 303,4563Z" style="fill:white;fill-rule:nonzero;"/>
    </g>
    <g transform="matrix(0.0917927,0,0,-0.0917927,-48.8248,627.272)">
        <path d="M5270,3605C5270,3587 5263,3577 5244,3570C5216,3559 5220,3540 5250,3540C5264,3540 5270,3532 5272,3508C5277,3460 5300,3460 5300,3509C5300,3544 5303,3549 5325,3552C5358,3556 5358,3574 5326,3578C5310,3580 5300,3589 5296,3606C5288,3638 5270,3637 5270,3605Z" style="fill:white;fill-rule:nonzero;"/>
    </g>
    <g transform="matrix(0.0917927,0,0,-0.0917927,430.847,450.053)">
        <path d="M277,1863C261,1848 271,1829 292,1832C321,1836 330,1870 302,1870C292,1870 280,1867 277,1863Z" style="fill:white;fill-rule:nonzero;"/>
    </g>
    <g transform="matrix(0.0917927,0,0,-0.0917927,1111.68,63.1637)">
        <path d="M365,398C356,368 336,335 322,323L296,301L322,273C337,258 352,229 357,210C368,167 382,165 393,205C412,267 420,281 445,290C476,302 477,316 448,331C418,347 410,359 410,392C410,424 401,450 390,450C385,450 374,426 365,398ZM394,285C381,265 375,262 364,271C346,286 346,295 366,326C382,350 383,350 397,331C409,313 409,307 394,285Z" style="fill:white;fill-rule:nonzero;"/>
    </g>
    <g transform="matrix(0.0917927,0,0,-0.0917927,1176.93,763.704)">
        <path d="M566,5273C563,5270 560,5254 560,5238C560,5215 556,5210 535,5210C519,5210 510,5204 510,5195C510,5186 519,5180 534,5180C552,5180 560,5174 562,5158C566,5127 590,5123 590,5153C590,5169 597,5179 610,5183C621,5186 630,5193 630,5198C630,5203 621,5210 610,5213C597,5216 590,5227 590,5243C590,5269 578,5285 566,5273Z" style="fill:white;fill-rule:nonzero;"/>
    </g>
    <g transform="matrix(0.0917927,0,0,-0.0917927,1567.17,505.73)">
        <path d="M2040,5186C2040,5148 2037,5141 2015,5136C1978,5127 1985,5103 2023,5109C2027,5110 2036,5097 2041,5080C2055,5042 2066,5042 2073,5079C2077,5099 2086,5110 2101,5112C2130,5116 2138,5140 2111,5140C2088,5140 2070,5167 2070,5204C2070,5220 2064,5230 2055,5230C2044,5230 2040,5218 2040,5186Z" style="fill:white;fill-rule:nonzero;"/>
    </g>
    <g transform="matrix(0.0917927,0,0,-0.0917927,864.728,513.018)">
        <path d="M3741,5187C3729,5172 3736,5160 3757,5160C3764,5160 3770,5169 3770,5180C3770,5203 3757,5206 3741,5187Z" style="fill:white;fill-rule:nonzero;"/>
    </g>
    <g transform="matrix(0.0917927,0,0,-0.0917927,1327.4,458.573)">
        <path d="M3553,3934C3550,3926 3552,3914 3557,3909C3569,3897 3605,3923 3596,3938C3586,3955 3560,3953 3553,3934Z" style="fill:white;fill-rule:nonzero;"/>
    </g>
    <g transform="matrix(0.0917927,0,0,-0.0917927,1523.05,577.664)">
        <path d="M262,3628C246,3612 247,3575 265,3560C285,3543 319,3557 326,3586C337,3628 292,3658 262,3628ZM300,3601C300,3595 296,3588 290,3585C285,3582 280,3586 280,3594C280,3603 285,3610 290,3610C296,3610 300,3606 300,3601Z" style="fill:white;fill-rule:nonzero;"/>
    </g>
    <g transform="matrix(0.0917927,0,0,-0.0917927,1427.4,454.078)">
        <path d="M277,1863C261,1848 271,1829 292,1832C321,1836 330,1870 302,1870C292,1870 280,1867 277,1863Z" style="fill:white;fill-rule:nonzero;"/>
    </g>
    <g transform="matrix(0.0917927,0,0,-0.0917927,456.981,776.626)">
        <path d="M566,5273C563,5270 560,5254 560,5238C560,5215 556,5210 535,5210C519,5210 510,5204 510,5195C510,5186 519,5180 534,5180C552,5180 560,5174 562,5158C566,5127 590,5123 590,5153C590,5169 597,5179 610,5183C621,5186 630,5193 630,5198C630,5203 621,5210 610,5213C597,5216 590,5227 590,5243C590,5269 578,5285 566,5273Z" style="fill:white;fill-rule:nonzero;"/>
    </g>
    <g transform="matrix(-0.00148279,-0.0917808,-0.0917808,0.00148279,1153.05,591.244)">
        <path d="M5270,3605C5270,3587 5263,3577 5244,3570C5216,3559 5220,3540 5250,3540C5264,3540 5270,3532 5272,3508C5277,3460 5300,3460 5300,3509C5300,3544 5303,3549 5325,3552C5358,3556 5358,3574 5326,3578C5310,3580 5300,3589 5296,3606C5288,3638 5270,3637 5270,3605Z" style="fill:white;fill-rule:nonzero;"/>
    </g>
    <g transform="matrix(-0.00148279,-0.0917808,-0.0917808,0.00148279,599.623,48.9085)">
        <path d="M277,1863C261,1848 271,1829 292,1832C321,1836 330,1870 302,1870C292,1870 280,1867 277,1863Z" style="fill:white;fill-rule:nonzero;"/>
    </g>
    <g transform="matrix(-0.00148279,-0.0917808,-0.0917808,0.00148279,971.237,51.5586)">
        <path d="M566,5273C563,5270 560,5254 560,5238C560,5215 556,5210 535,5210C519,5210 510,5204 510,5195C510,5186 519,5180 534,5180C552,5180 560,5174 562,5158C566,5127 590,5123 590,5153C590,5169 597,5179 610,5183C621,5186 630,5193 630,5198C630,5203 621,5210 610,5213C597,5216 590,5227 590,5243C590,5269 578,5285 566,5273Z" style="fill:white;fill-rule:nonzero;"/>
    </g>
    <g transform="matrix(0.0917927,0,0,-0.0917927,903.1,586.091)">
        <path d="M262,3628C246,3612 247,3575 265,3560C285,3543 319,3557 326,3586C337,3628 292,3658 262,3628ZM300,3601C300,3595 296,3588 290,3585C285,3582 280,3586 280,3594C280,3603 285,3610 290,3610C296,3610 300,3606 300,3601Z" style="fill:white;fill-rule:nonzero;"/>
    </g>
    <g transform="matrix(0.0917927,0,0,-0.0917927,707.45,467)">
        <path d="M277,1863C261,1848 271,1829 292,1832C321,1836 330,1870 302,1870C292,1870 280,1867 277,1863Z" style="fill:white;fill-rule:nonzero;"/>
    </g>
    <g transform="matrix(0.0917927,0,0,-0.0917927,1094.4,41.289)">
        <path d="M1330,270C1330,247 1325,237 1310,233C1299,230 1290,224 1290,220C1290,216 1299,210 1310,207C1322,204 1330,193 1330,182C1330,171 1333,155 1336,146C1347,117 1360,129 1360,169C1360,205 1363,209 1387,212C1425,216 1429,240 1391,240C1366,240 1361,244 1358,267C1353,306 1330,309 1330,270Z" style="fill:white;fill-rule:nonzero;"/>
    </g>
    <g transform="matrix(0.0917927,0,0,-0.0917927,761.901,43.8396)">
        <path d="M4396,314C4377,296 4376,286 4390,259C4409,224 4470,241 4470,281C4470,302 4444,330 4425,330C4418,330 4404,323 4396,314ZM4438,282C4440,275 4435,270 4426,270C4417,270 4410,277 4410,286C4410,303 4432,300 4438,282Z" style="fill:white;fill-rule:nonzero;"/>
    </g>
    <g transform="matrix(0.0917927,0,0,-0.0917927,1037.98,101.731)">
        <path d="M1330,270C1330,247 1325,237 1310,233C1299,230 1290,224 1290,220C1290,216 1299,210 1310,207C1322,204 1330,193 1330,182C1330,171 1333,155 1336,146C1347,117 1360,129 1360,169C1360,205 1363,209 1387,212C1425,216 1429,240 1391,240C1366,240 1361,244 1358,267C1353,306 1330,309 1330,270Z" style="fill:white;fill-rule:nonzero;"/>
    </g>
    <defs>
        <linearGradient id="_Linear1" x1="0" y1="0" x2="1" y2="0" gradientUnits="userSpaceOnUse" gradientTransform="matrix(4.24187e-14,-440.872,692.749,2.69956e-14,968.149,1080)"><stop offset="0" style="stop-color:rgb(8,6,5);stop-opacity:1"/><stop offset="0.51" style="stop-color:rgb(11,11,11);stop-opacity:1"/><stop offset="1" style="stop-color:rgb(19,27,28);stop-opacity:1"/></linearGradient>
    </defs>
</svg>
