<?xml version="1.0" encoding="UTF-8" standalone="no"?>
<!DOCTYPE svg PUBLIC "-//W3C//DTD SVG 1.1//EN" "http://www.w3.org/Graphics/SVG/1.1/DTD/svg11.dtd">
<svg width="100%" height="100%" viewBox="0 0 110 80" version="1.1" xmlns="http://www.w3.org/2000/svg" xmlns:xlink="http://www.w3.org/1999/xlink" xml:space="preserve" xmlns:serif="http://www.serif.com/" style="fill-rule:evenodd;clip-rule:evenodd;stroke-linejoin:round;stroke-miterlimit:2;">
    <g transform="matrix(0.648675,0,0,0.590275,-269.343,-133.413)">
        <g transform="matrix(0.1,0,0,-0.1,413.22,363.048)">
            <path d="M807,1350C794,1339 779,1319 776,1305C772,1288 754,1272 720,1255C661,1225 640,1189 641,1123L642,1075L656,1120C673,1173 684,1188 727,1218L760,1241L790,1175L785,1205C780,1231 785,1240 825,1273C863,1305 870,1308 870,1292C870,1281 879,1261 890,1247C915,1216 915,1215 889,1177L868,1145L897,1177L926,1210L958,1186C1011,1147 1033,1112 1038,1056C1042,1018 1045,1010 1051,1025C1062,1053 1062,1114 1051,1143C1046,1157 1008,1193 967,1223C927,1254 888,1291 882,1305C871,1330 869,1330 845,1314C811,1292 798,1306 829,1331C863,1358 922,1336 933,1291C935,1282 936,1288 934,1304C925,1367 860,1391 807,1350Z" style="fill:rgb(8,6,5);fill-rule:nonzero;"/>
        </g>
        <g transform="matrix(0.1,0,0,-0.1,413.22,363.048)">
            <path d="M84,1051C41,1025 20,992 20,951C20,902 80,847 152,830C181,823 216,807 230,795C260,768 320,736 327,744C330,747 317,755 299,763C280,771 252,790 235,807C219,823 185,842 160,849C101,866 66,892 50,930C39,957 39,967 53,996C62,1015 84,1039 102,1050C120,1061 131,1070 125,1070C120,1070 101,1061 84,1051Z" style="fill:rgb(8,6,5);fill-rule:nonzero;"/>
        </g>
        <g transform="matrix(0.1,0,0,-0.1,413.22,363.048)">
            <path d="M702,1013C696,997 686,951 680,910C667,823 654,800 600,764C578,749 560,736 560,734C560,733 580,738 605,746C630,755 663,777 680,796C707,828 710,837 710,903C710,943 714,990 719,1008C731,1047 717,1051 702,1013Z" style="fill:rgb(8,6,5);fill-rule:nonzero;"/>
        </g>
        <g transform="matrix(0.1,0,0,-0.1,413.22,363.048)">
            <path d="M946,997C948,974 951,927 954,892C959,818 977,787 1028,761C1095,727 1119,726 1071,758C1014,798 993,831 985,899C977,969 962,1027 951,1034C946,1037 944,1021 946,997Z" style="fill:rgb(8,6,5);fill-rule:nonzero;"/>
        </g>
        <g transform="matrix(0.1,0,0,-0.1,413.22,363.048)">
            <path d="M377,885C362,872 332,855 310,849C266,836 264,832 285,804C299,785 299,785 295,805C291,821 300,830 340,848C368,861 395,880 400,891C414,915 411,915 377,885Z" style="fill:rgb(8,6,5);fill-rule:nonzero;"/>
        </g>
        <g transform="matrix(-0.1,0,0,-0.1,586.796,363.048)">
            <path d="M84,1051C41,1025 20,992 20,951C20,902 80,847 152,830C181,823 216,807 230,795C260,768 320,736 327,744C330,747 317,755 299,763C280,771 252,790 235,807C219,823 185,842 160,849C101,866 66,892 50,930C39,957 39,967 53,996C62,1015 84,1039 102,1050C120,1061 131,1070 125,1070C120,1070 101,1061 84,1051Z" style="fill:rgb(8,6,5);fill-rule:nonzero;"/>
        </g>
        <g transform="matrix(-0.1,0,0,-0.1,586.796,363.048)">
            <path d="M377,885C362,872 332,855 310,849C266,836 264,832 285,804C299,785 299,785 295,805C291,821 300,830 340,848C368,861 395,880 400,891C414,915 411,915 377,885Z" style="fill:rgb(8,6,5);fill-rule:nonzero;"/>
        </g>
        <g transform="matrix(0.1,0,0,-0.1,413.22,363.048)">
            <path d="M900,849C900,840 912,807 926,775C962,698 956,627 906,504C864,405 859,386 835,247C826,193 815,151 812,154C809,158 808,212 809,275C811,383 809,397 779,483C754,554 747,593 746,653C746,695 744,730 743,730C731,730 709,658 708,617C708,577 716,550 748,487C781,424 787,403 780,384C752,311 761,134 796,52L812,15L837,69C870,143 890,246 890,341C890,407 894,429 916,473C983,603 998,707 959,762C947,778 929,808 919,828C909,848 901,858 900,849Z" style="fill:rgb(8,6,5);fill-rule:nonzero;"/>
        </g>
        <g transform="matrix(0.1,0,0,-0.1,413.22,363.048)">
            <path d="M325,675C297,647 291,590 314,570C327,560 327,563 317,590C302,629 322,670 363,684C394,695 426,673 433,636C437,615 437,616 439,638C440,667 407,700 375,700C361,700 338,689 325,675Z" style="fill:rgb(8,6,5);fill-rule:nonzero;"/>
        </g>
        <g transform="matrix(0.1,0,0,-0.1,413.22,363.048)">
            <path d="M1268,689C1255,682 1250,668 1251,642L1253,605L1259,639C1262,658 1272,677 1281,683C1308,700 1349,682 1367,645C1382,613 1382,609 1365,583L1347,555L1368,574C1414,614 1379,700 1317,700C1299,700 1277,695 1268,689Z" style="fill:rgb(8,6,5);fill-rule:nonzero;"/>
        </g>
        <g transform="matrix(0.1,0,0,-0.1,413.22,363.048)">
            <path d="M460,567C368,425 367,422 373,305C377,216 415,51 427,64C430,66 424,139 415,226C405,312 400,398 403,416C406,434 427,477 450,510C490,569 535,659 528,664C527,666 496,622 460,567Z" style="fill:rgb(8,6,5);fill-rule:nonzero;"/>
        </g>
        <g transform="matrix(0.1,0,0,-0.1,413.22,363.048)">
            <path d="M1160,662C1160,643 1184,596 1232,522C1258,481 1282,434 1285,417C1288,399 1282,311 1271,220C1260,129 1253,54 1255,52C1260,46 1289,142 1305,215C1325,310 1324,396 1301,445C1279,494 1160,676 1160,662Z" style="fill:rgb(8,6,5);fill-rule:nonzero;"/>
        </g>
        <g transform="matrix(0.1,0,0,-0.1,413.22,363.048)">
            <path d="M209,467C179,449 135,419 110,401C52,358 88,368 186,421C225,443 260,460 263,460C276,460 270,414 235,261C216,176 202,105 204,103C209,97 276,278 294,346C319,444 312,500 275,500C269,500 239,485 209,467Z" style="fill:rgb(8,6,5);fill-rule:nonzero;"/>
        </g>
        <g transform="matrix(0.1,0,0,-0.1,413.22,363.048)">
            <path d="M1387,493C1375,482 1380,397 1394,341C1411,280 1480,97 1485,102C1487,104 1472,182 1451,275C1428,376 1416,449 1421,455C1427,461 1455,450 1498,428C1570,389 1631,363 1615,378C1610,383 1568,413 1522,444C1446,495 1404,511 1387,493Z" style="fill:rgb(8,6,5);fill-rule:nonzero;"/>
        </g>
    </g>
</svg>
