<?xml version="1.0" encoding="UTF-8" standalone="no"?>
<!DOCTYPE svg PUBLIC "-//W3C//DTD SVG 1.1//EN" "http://www.w3.org/Graphics/SVG/1.1/DTD/svg11.dtd">
<svg width="100%" height="100%" viewBox="0 0 16 23" version="1.1" xmlns="http://www.w3.org/2000/svg" xmlns:xlink="http://www.w3.org/1999/xlink" xml:space="preserve" xmlns:serif="http://www.serif.com/" style="fill-rule:evenodd;clip-rule:evenodd;stroke-linejoin:round;stroke-miterlimit:2;">
    <g transform="matrix(0.058968,0,0,-0.058968,-215.171,148.714)">
        <path d="M3750,2478C3730,2409 3701,2360 3675,2350C3661,2345 3650,2338 3650,2335C3650,2332 3666,2310 3685,2285C3704,2260 3727,2215 3736,2184C3758,2116 3775,2117 3799,2188C3818,2242 3868,2305 3902,2316C3932,2325 3922,2347 3878,2372C3842,2392 3831,2405 3811,2458C3797,2492 3781,2520 3775,2520C3768,2520 3757,2501 3750,2478ZM3794,2416C3802,2397 3822,2372 3839,2359L3870,2336L3836,2301C3818,2281 3794,2250 3785,2231L3768,2197L3734,2261C3698,2328 3694,2340 3710,2340C3716,2340 3732,2365 3747,2395C3762,2425 3775,2450 3777,2450C3778,2450 3786,2435 3794,2416Z" style="fill-rule:nonzero;"/>
    </g>
    <g transform="matrix(0.564821,0,0,0.564821,-118.344,-319.115)">
        <path d="M224.285,580.247C224.757,581.368 225.936,582.842 226.939,583.608L228.767,584.965L226.762,587.029C225.7,588.208 224.285,590.036 223.755,591.156L222.752,593.161L220.747,589.387C218.624,585.436 218.388,584.729 219.332,584.729C219.686,584.729 220.629,583.255 221.514,581.486C222.398,579.716 223.165,578.242 223.283,578.242C223.342,578.242 223.814,579.127 224.285,580.247Z" style="fill:rgb(245,242,162);"/>
    </g>
</svg>
