<?xml version="1.0" encoding="UTF-8" standalone="no"?>
<!DOCTYPE svg PUBLIC "-//W3C//DTD SVG 1.1//EN" "http://www.w3.org/Graphics/SVG/1.1/DTD/svg11.dtd">
<svg width="100%" height="100%" viewBox="0 0 410 220" version="1.1" xmlns="http://www.w3.org/2000/svg" xmlns:xlink="http://www.w3.org/1999/xlink" xml:space="preserve" xmlns:serif="http://www.serif.com/" style="fill-rule:evenodd;clip-rule:evenodd;stroke-linejoin:round;stroke-miterlimit:2;">
    <g transform="matrix(0.325587,0,0,0.325587,-60.1215,-149.977)">
        <path d="M325.67,642.778C324.427,641.336 323.263,639.829 322.185,638.265C316.495,630.011 313.185,620.147 313.185,609.555C313.185,580.561 337.987,557.021 368.535,557.021C390.466,557.021 409.436,569.154 418.392,586.729C419.258,588.428 420.031,590.178 420.703,591.974C387.222,610.912 354.275,628.477 325.67,642.778ZM422.537,597.995C422.962,599.788 423.29,601.616 423.516,603.472C423.759,605.468 423.884,607.498 423.884,609.555C423.884,638.55 399.083,662.09 368.535,662.09C356.781,662.09 345.878,658.605 336.912,652.666C335.16,651.506 333.482,650.252 331.887,648.912C336.145,646.517 340.556,644.007 345.124,641.38C364.607,630.247 398.405,611.36 420.274,599.232C421.037,598.815 421.791,598.403 422.537,597.995Z" style="fill:rgb(167,221,233);"/>
    </g>
    <g transform="matrix(0.298279,0,0,0.298279,62.743,-103.679)">
        <ellipse cx="368.535" cy="609.555" rx="55.349" ry="52.535" style="fill:rgb(93,198,198);"/>
    </g>
    <g transform="matrix(0.225429,0,0,0.232974,233.553,-124.383)">
        <ellipse cx="368.535" cy="609.555" rx="55.349" ry="52.535" style="fill:rgb(189,190,181);"/>
    </g>
    <g transform="matrix(0.496697,0,0,0.496697,-263.149,-206.359)">
        <g transform="matrix(0.1,0,0,-0.1,416.1,864.957)">
            <path d="M4460,3484C4125,3412 3961,3040 4135,2744C4169,2686 4277,2589 4341,2558C4514,2476 4719,2500 4866,2618C5095,2803 5112,3138 4902,3353C4843,3414 4719,3476 4630,3490C4550,3502 4541,3502 4460,3484ZM4708,3439C4996,3339 5110,2996 4939,2741C4858,2620 4737,2551 4591,2542C4537,2539 4482,2542 4449,2550C4220,2603 4061,2841 4099,3072C4146,3359 4437,3534 4708,3439Z" style="fill-rule:nonzero;"/>
        </g>
        <g transform="matrix(0.1,0,0,-0.1,416.1,864.957)">
            <path d="M4435,3400C4432,3395 4436,3390 4445,3390C4454,3390 4458,3395 4455,3400C4452,3406 4447,3410 4445,3410C4443,3410 4438,3406 4435,3400Z" style="fill-rule:nonzero;stroke:rgb(8,6,5);stroke-width:20.13px;"/>
        </g>
        <g transform="matrix(0.1,0,0,-0.1,416.1,864.957)">
            <path d="M4660,3325C4660,3317 4665,3310 4670,3310C4676,3310 4680,3317 4680,3325C4680,3333 4676,3340 4670,3340C4665,3340 4660,3333 4660,3325Z" style="fill-rule:nonzero;stroke:rgb(8,6,5);stroke-width:20.13px;"/>
        </g>
        <g transform="matrix(0.1,0,0,-0.1,416.1,864.957)">
            <path d="M4355,3308C4312,3283 4294,3228 4326,3216C4358,3204 4414,3254 4408,3292C4404,3318 4384,3325 4355,3308ZM4370,3265C4363,3257 4354,3250 4349,3250C4344,3250 4343,3257 4346,3265C4350,3273 4359,3280 4367,3280C4380,3280 4380,3277 4370,3265Z" style="fill-rule:nonzero;"/>
        </g>
        <g transform="matrix(0.1,0,0,-0.1,416.1,864.957)">
            <path d="M4525,3280C4522,3275 4524,3270 4529,3270C4535,3270 4540,3275 4540,3280C4540,3286 4538,3290 4536,3290C4533,3290 4528,3286 4525,3280Z" style="fill-rule:nonzero;stroke:rgb(8,6,5);stroke-width:20.13px;"/>
        </g>
        <g transform="matrix(0.1,0,0,-0.1,416.1,864.957)">
            <path d="M4786,3182C4783,3176 4785,3168 4791,3165C4806,3155 4816,3168 4803,3181C4796,3188 4790,3188 4786,3182Z" style="fill-rule:nonzero;stroke:rgb(8,6,5);stroke-width:20.13px;"/>
        </g>
        <g transform="matrix(0.1,0,0,-0.1,416.1,864.957)">
            <path d="M4593,3144C4573,3113 4584,3087 4619,3082C4647,3078 4670,3096 4670,3124C4670,3173 4621,3186 4593,3144ZM4640,3125C4640,3117 4633,3110 4625,3110C4609,3110 4605,3122 4617,3133C4628,3145 4640,3141 4640,3125Z" style="fill-rule:nonzero;"/>
        </g>
        <g transform="matrix(0.1,0,0,-0.1,416.1,864.957)">
            <path d="M4220,3100C4220,3095 4225,3090 4230,3090C4236,3090 4240,3095 4240,3100C4240,3106 4236,3110 4230,3110C4225,3110 4220,3106 4220,3100Z" style="fill-rule:nonzero;stroke:rgb(8,6,5);stroke-width:20.13px;"/>
        </g>
        <g transform="matrix(0.1,0,0,-0.1,416.1,864.957)">
            <path d="M4450,3075C4450,3067 4455,3060 4460,3060C4466,3060 4470,3067 4470,3075C4470,3083 4466,3090 4460,3090C4455,3090 4450,3083 4450,3075Z" style="fill-rule:nonzero;stroke:rgb(8,6,5);stroke-width:20.13px;"/>
        </g>
        <g transform="matrix(0.1,0,0,-0.1,416.1,864.957)">
            <path d="M4922,3079C4924,3073 4930,3069 4935,3069C4940,3069 4946,3073 4948,3079C4950,3085 4944,3090 4935,3090C4926,3090 4920,3085 4922,3079Z" style="fill-rule:nonzero;stroke:rgb(8,6,5);stroke-width:20.13px;"/>
        </g>
        <g transform="matrix(0.1,0,0,-0.1,416.1,864.957)">
            <path d="M4196,2922C4194,2918 4196,2908 4201,2900C4209,2887 4211,2887 4219,2900C4229,2915 4225,2930 4210,2930C4205,2930 4199,2926 4196,2922Z" style="fill-rule:nonzero;stroke:rgb(8,6,5);stroke-width:20.13px;"/>
        </g>
        <g transform="matrix(0.1,0,0,-0.1,416.1,864.957)">
            <path d="M4385,2911C4379,2900 4394,2888 4404,2897C4413,2906 4411,2920 4401,2920C4395,2920 4389,2916 4385,2911Z" style="fill-rule:nonzero;stroke:rgb(8,6,5);stroke-width:20.13px;"/>
        </g>
        <g transform="matrix(0.1,0,0,-0.1,416.1,864.957)">
            <path d="M4720,2910C4720,2905 4725,2900 4730,2900C4736,2900 4740,2905 4740,2910C4740,2916 4736,2920 4730,2920C4725,2920 4720,2916 4720,2910Z" style="fill-rule:nonzero;stroke:rgb(8,6,5);stroke-width:20.13px;"/>
        </g>
        <g transform="matrix(0.1,0,0,-0.1,416.1,864.957)">
            <path d="M4472,2834C4458,2824 4450,2808 4450,2790C4450,2772 4458,2756 4472,2746C4501,2726 4506,2726 4530,2750C4554,2774 4556,2813 4534,2834C4515,2854 4500,2854 4472,2834ZM4518,2793C4522,2768 4496,2756 4480,2776C4470,2787 4470,2793 4480,2805C4497,2825 4514,2819 4518,2793Z" style="fill-rule:nonzero;"/>
        </g>
        <g transform="matrix(0.1,0,0,-0.1,416.1,864.957)">
            <path d="M4850,2755C4828,2729 4854,2712 4880,2735C4900,2753 4898,2770 4876,2770C4868,2770 4857,2763 4850,2755Z" style="fill-rule:nonzero;"/>
        </g>
        <g transform="matrix(0.1,0,0,-0.1,416.1,864.957)">
            <path d="M4320,2690C4320,2685 4327,2680 4335,2680C4343,2680 4350,2685 4350,2690C4350,2696 4343,2700 4335,2700C4327,2700 4320,2696 4320,2690Z" style="fill-rule:nonzero;stroke:rgb(8,6,5);stroke-width:20.13px;"/>
        </g>
        <g transform="matrix(0.1,0,0,-0.1,416.1,864.957)">
            <path d="M4656,2673C4645,2662 4650,2650 4665,2650C4673,2650 4680,2654 4680,2659C4680,2672 4664,2681 4656,2673Z" style="fill-rule:nonzero;stroke:rgb(8,6,5);stroke-width:20.13px;"/>
        </g>
    </g>
    <g transform="matrix(0.375434,0,0,0.375434,-54.443,-192.759)">
        <g transform="matrix(0.1,0,0,-0.1,910.807,848.664)">
            <path d="M1068,3349C1043,3330 1035,3329 990,3339C864,3366 686,3341 568,3281C512,3252 509,3252 470,3267C434,3281 428,3281 407,3267C376,3247 300,3134 300,3108C300,3098 309,3071 320,3050C339,3012 340,3007 325,2951C308,2886 305,2747 319,2686C327,2655 325,2640 308,2608C289,2571 288,2567 304,2527C349,2411 380,2384 437,2413C464,2427 468,2427 503,2401C556,2361 649,2321 727,2305C900,2268 1087,2311 1185,2409C1219,2443 1231,2449 1267,2450C1319,2450 1338,2467 1380,2549C1417,2623 1418,2661 1384,2706C1359,2738 1358,2745 1364,2808C1377,2942 1339,3092 1272,3170C1239,3210 1235,3219 1238,3261C1242,3307 1241,3309 1198,3334C1135,3371 1101,3375 1068,3349ZM1179,3322C1212,3298 1224,3276 1217,3256C1211,3240 1208,3240 1183,3258C1167,3269 1135,3288 1111,3300C1068,3321 1067,3323 1086,3337C1108,3353 1144,3347 1179,3322ZM1042,3301C1212,3241 1311,3116 1330,2938C1339,2846 1328,2725 1303,2652C1226,2423 1057,2309 815,2323C543,2339 356,2517 342,2773C337,2877 351,2958 391,3056C442,3179 554,3268 714,3311C806,3336 957,3331 1042,3301ZM474,3244C487,3239 484,3231 456,3200C437,3179 407,3135 388,3101C370,3068 352,3040 349,3040C345,3040 337,3054 330,3071C314,3108 330,3148 386,3210C421,3249 441,3257 474,3244ZM1376,2668C1392,2638 1391,2635 1364,2576C1328,2499 1313,2480 1283,2480C1256,2480 1254,2488 1275,2517C1288,2535 1318,2608 1345,2688C1352,2707 1358,2703 1376,2668ZM398,2512C441,2445 441,2431 397,2430C370,2430 315,2549 325,2586C332,2613 333,2614 344,2596C350,2585 374,2548 398,2512Z" style="fill-rule:nonzero;"/>
        </g>
        <g transform="matrix(0.1,0,0,-0.1,910.807,848.664)">
            <path d="M756,3281C752,3276 754,3269 759,3266C764,3262 771,3264 774,3269C778,3274 776,3281 771,3284C766,3288 759,3286 756,3281Z" style="fill-rule:nonzero;"/>
        </g>
        <g transform="matrix(0.1,0,0,-0.1,910.807,848.664)">
            <path d="M830,3280C830,3275 835,3270 840,3270C846,3270 850,3275 850,3280C850,3286 846,3290 840,3290C835,3290 830,3286 830,3280Z" style="fill-rule:nonzero;"/>
        </g>
        <g transform="matrix(0.1,0,0,-0.1,910.807,848.664)">
            <path d="M712,3231C714,3224 719,3219 723,3219C735,3220 732,3234 720,3239C713,3241 709,3237 712,3231Z" style="fill-rule:nonzero;"/>
        </g>
        <g transform="matrix(0.1,0,0,-0.1,910.807,848.664)">
            <path d="M617,3203C613,3200 620,3192 633,3186C670,3167 667,3128 625,3091C584,3056 571,3055 553,3089C543,3111 542,3112 532,3093C518,3067 535,3040 566,3040C621,3040 680,3099 680,3152C680,3188 637,3223 617,3203Z" style="fill-rule:nonzero;"/>
        </g>
        <g transform="matrix(0.1,0,0,-0.1,910.807,848.664)">
            <path d="M1022,3183C1008,3158 1025,3111 1062,3073C1087,3047 1102,3040 1125,3042C1147,3044 1155,3050 1155,3064C1155,3075 1149,3085 1143,3088C1136,3090 1130,3085 1130,3076C1130,3052 1107,3057 1078,3088C1042,3126 1028,3157 1035,3180C1043,3204 1034,3206 1022,3183Z" style="fill-rule:nonzero;"/>
        </g>
        <g transform="matrix(0.1,0,0,-0.1,910.807,848.664)">
            <path d="M1254,3028C1258,3015 1263,2993 1266,2978C1273,2948 1290,2939 1290,2965C1290,2986 1263,3050 1254,3050C1251,3050 1251,3040 1254,3028Z" style="fill-rule:nonzero;"/>
        </g>
        <g transform="matrix(0.1,0,0,-0.1,910.807,848.664)">
            <path d="M1230,2978C1230,2962 1235,2950 1240,2950C1253,2950 1253,2970 1240,2990C1232,3002 1230,2999 1230,2978Z" style="fill-rule:nonzero;"/>
        </g>
        <g transform="matrix(0.1,0,0,-0.1,910.807,848.664)">
            <path d="M381,2931C365,2903 362,2838 376,2833C383,2831 389,2851 393,2887C400,2951 397,2961 381,2931Z" style="fill-rule:nonzero;"/>
        </g>
        <g transform="matrix(0.1,0,0,-0.1,910.807,848.664)">
            <path d="M425,2900C418,2877 427,2857 441,2865C453,2873 453,2920 441,2920C436,2920 429,2911 425,2900Z" style="fill-rule:nonzero;"/>
        </g>
        <g transform="matrix(0.1,0,0,-0.1,910.807,848.664)">
            <path d="M786,2888C756,2845 772,2780 814,2780C838,2780 868,2806 857,2817C853,2820 844,2817 835,2810C800,2781 775,2833 801,2882C816,2910 805,2916 786,2888Z" style="fill-rule:nonzero;"/>
        </g>
        <g transform="matrix(0.1,0,0,-0.1,910.807,848.664)">
            <path d="M1196,2841C1193,2836 1197,2830 1205,2826C1227,2818 1224,2757 1202,2737C1178,2715 1170,2716 1170,2739C1170,2750 1165,2762 1159,2765C1152,2770 1150,2760 1152,2739C1154,2711 1159,2704 1182,2702C1215,2698 1242,2734 1243,2784C1244,2830 1212,2868 1196,2841Z" style="fill-rule:nonzero;"/>
        </g>
        <g transform="matrix(0.1,0,0,-0.1,910.807,848.664)">
            <path d="M467,2802C457,2792 450,2775 451,2764C451,2747 452,2747 462,2767C476,2795 506,2806 526,2789C549,2770 580,2705 580,2676C580,2642 564,2635 534,2655C510,2671 508,2671 512,2654C517,2628 564,2613 584,2630C616,2656 595,2746 546,2795C516,2825 489,2827 467,2802Z" style="fill-rule:nonzero;"/>
        </g>
        <g transform="matrix(0.1,0,0,-0.1,910.807,848.664)">
            <path d="M1150,2560C1126,2536 1123,2490 1146,2490C1157,2490 1159,2496 1155,2509C1148,2531 1173,2560 1198,2560C1213,2560 1213,2562 1200,2570C1179,2584 1173,2583 1150,2560Z" style="fill-rule:nonzero;"/>
        </g>
        <g transform="matrix(0.1,0,0,-0.1,910.807,848.664)">
            <path d="M805,2500C790,2493 796,2491 831,2491C883,2490 916,2471 907,2446C903,2435 888,2430 860,2430C815,2430 806,2415 847,2407C880,2401 927,2416 934,2436C953,2485 868,2527 805,2500Z" style="fill-rule:nonzero;"/>
        </g>
    </g>
    <g transform="matrix(1,0,0,1,-103.78,-651.297)">
        <path d="M423.649,691.139L423.649,770.454" style="fill:none;stroke:rgb(8,6,5);stroke-width:2px;stroke-linecap:round;stroke-miterlimit:10;"/>
    </g>
    <g transform="matrix(1,0,0,1.15833,-108.472,-776.794)">
        <path d="M278.34,755.74L278.34,825.577" style="fill:none;stroke:rgb(8,6,5);stroke-width:1.85px;stroke-linecap:round;stroke-miterlimit:10;"/>
    </g>
    <g transform="matrix(1,0,0,1.30441,-107.328,-876.298)">
        <path d="M167.197,731.187L167.197,755.74" style="fill:none;stroke:rgb(8,6,5);stroke-width:1.72px;stroke-linecap:round;stroke-miterlimit:10;"/>
    </g>
    <g transform="matrix(0.06473,0,0,-0.06473,-11.6421,130.763)">
        <path d="M1680,1709C1590,1684 1509,1656 1448,1628L1380,1597C1380,1597 1320.54,1642.68 1234.83,1669.9C1181.89,1686.72 1099.45,1691.18 1073.19,1689.41C1007.31,1684.95 938.291,1667.15 906,1651C765,1582 673,1449 663,1300C660,1257 655,1218 651,1213C648,1208 605,1178 555,1145C506,1112 437,1058 403,1025C351,975 340,958 340,931C340,886 386,840 432,840C482,840 605,877 696,919L776,957L811,928C864,882 951,842 1023,830C1076,820 1103,821 1169,834C1327,864 1430,950 1500,1110C1521,1157 1524,1180 1523,1270L1523,1375L1615,1427C1734,1495 1823,1562 1849,1604C1876,1647 1876,1696 1851,1710C1827,1722 1728,1722 1680,1709ZM1838,1662C1842,1634 1813,1596 1747,1547C1685,1500 1623,1464 1365,1323C1255,1262 1085,1167 987,1111C627,904 461,841 395,884C356,910 362,948 413,997C470,1053 650,1181 661,1174C680,1163 667,1148 598,1104C508,1046 443,995 429,969C413,938 435,917 474,926C602,953 1033,1166 1459,1412C1688,1544 1735,1580 1728,1617C1721,1655 1604,1637 1464,1575C1435,1562 1408,1555 1405,1560C1385,1593 1676,1691 1780,1687C1829,1685 1835,1682 1838,1662ZM1216,1644C1244,1637 1289,1616 1316,1598C1369,1562 1453,1465 1447,1447C1442,1431 1228,1310 964,1174C793,1085 740,1063 732,1072C709,1101 690,1185 690,1260C690,1420 768,1547 911,1622C1002,1669 1101,1676 1216,1644ZM1684,1589C1674,1578 1625,1544 1575,1514L1485,1460L1463,1487C1435,1522 1435,1526 1463,1542C1503,1564 1644,1609 1674,1610C1703,1610 1703,1610 1684,1589ZM1496,1303C1519,1148 1414,962 1265,894C1133,833 990,843 871,920C837,942 810,964 810,969C810,974 917,1039 1048,1113C1415,1322 1464,1349 1477,1349C1484,1350 1492,1329 1496,1303ZM697,1044C682,1030 496,960 473,960C458,960 458,962 475,979C486,990 535,1026 585,1059L674,1120L691,1088C705,1063 706,1052 697,1044Z" style="fill-rule:nonzero;"/>
    </g>
    <g transform="matrix(1,0,0,1,-147.858,-534.216)">
        <text x="168.034px" y="669.416px" style="font-family:'Helvetica-Light', 'Helvetica';font-size:20px;">Р</text>
        <text x="182.634px" y="669.416px" style="font-family:'Helvetica-Light', 'Helvetica';font-size:14.589px;">Е<tspan x="192.744px 203.934px 214.044px 225.773px 236.685px " y="669.416px 669.416px 669.416px 669.416px 669.416px ">БЁНКА</tspan></text>
    </g>
    <g transform="matrix(1,0,0,1,-257.914,-536.384)">
        <text x="376.367px" y="741.638px" style="font-family:'Helvetica-Light', 'Helvetica';font-size:20px;">Р</text>
        <text x="390.967px" y="741.638px" style="font-family:'Helvetica-Light', 'Helvetica';font-size:14.589px;">О<tspan x="403.236px 415.14px 426.957px 436.527px 446.637px 458.366px 468.476px " y="741.638px 741.638px 741.638px 741.638px 741.638px 741.638px 741.638px ">ДИТЕЛЕЙ</tspan></text>
    </g>
    <g transform="matrix(0.658868,0,0,1.04829,-219.576,-698.157)">
        <path d="M514.794,788.127C514.794,778.366 502.205,770.454 486.676,770.454L361.58,770.454C346.051,770.454 333.462,778.366 333.462,788.127L333.462,790.938C333.462,800.699 346.051,808.611 361.58,808.611L486.676,808.611C502.205,808.611 514.794,800.699 514.794,790.938L514.794,788.127Z" style="fill:none;stroke:rgb(8,6,5);stroke-width:2.28px;stroke-linecap:round;stroke-miterlimit:10;"/>
    </g>
    <g transform="matrix(1,0,0,1,-92.7624,-674.011)">
        <text x="343.034px" y="819.415px" style="font-family:'Helvetica-Light', 'Helvetica';font-size:20px;">С</text>
        <text x="359.114px" y="819.415px" style="font-family:'Helvetica-Light', 'Helvetica';font-size:14.589px;">П<tspan x="370.697px 380.807px 392.697px 404.513px 415.163px 426.892px 438.709px 450.438px 460.008px 472.277px " y="819.415px 819.415px 819.415px 819.415px 819.415px 819.415px 819.415px 819.415px 819.415px 819.415px ">ЕЦИАЛИСТОВ</tspan></text>
    </g>
    <g transform="matrix(0.992652,0,0,1,-101.143,-651.331)">
        <path d="M514.794,788.98C514.794,784.067 512.828,779.354 509.328,775.88C505.828,772.406 501.081,770.454 496.131,770.454L352.125,770.454C347.175,770.454 342.428,772.406 338.928,775.88C335.428,779.354 333.462,784.067 333.462,788.98L333.462,790.085C333.462,794.999 335.428,799.711 338.928,803.185C342.428,806.659 347.175,808.611 352.125,808.611L496.131,808.611C501.081,808.611 505.828,806.659 509.328,803.185C512.828,799.711 514.794,794.999 514.794,790.085L514.794,788.98Z" style="fill:none;stroke:rgb(8,6,5);stroke-width:2.01px;stroke-linecap:round;stroke-miterlimit:10;"/>
    </g>
    <g transform="matrix(0.772062,0,0,1.04829,-157.585,-628.157)">
        <path d="M514.794,788.127C514.794,778.366 504.051,770.454 490.799,770.454C456.074,770.454 392.182,770.454 357.458,770.454C344.205,770.454 333.462,778.366 333.462,788.127C333.462,789.062 333.462,790.003 333.462,790.938C333.462,800.699 344.205,808.611 357.458,808.611C392.182,808.611 456.074,808.611 490.799,808.611C504.051,808.611 514.794,800.699 514.794,790.938C514.794,790.003 514.794,789.062 514.794,788.127Z" style="fill:none;stroke:rgb(8,6,5);stroke-width:2.17px;stroke-linecap:round;stroke-miterlimit:10;"/>
    </g>
</svg>
