<?xml version="1.0" encoding="UTF-8" standalone="no"?>
<!DOCTYPE svg PUBLIC "-//W3C//DTD SVG 1.1//EN" "http://www.w3.org/Graphics/SVG/1.1/DTD/svg11.dtd">
<svg width="100%" height="100%" viewBox="0 0 24 23" version="1.1" xmlns="http://www.w3.org/2000/svg" xmlns:xlink="http://www.w3.org/1999/xlink" xml:space="preserve" xmlns:serif="http://www.serif.com/" style="fill-rule:evenodd;clip-rule:evenodd;stroke-linejoin:round;stroke-miterlimit:2;">
    <g transform="matrix(0.1,0,0,-0.1,-298.472,370.05)">
        <path d="M3093,3663C3076,3624 3072,3621 3031,3618L2986,3615L3018,3579C3046,3547 3048,3539 3040,3512C3029,3471 3042,3463 3077,3488C3104,3508 3105,3508 3143,3488C3190,3465 3198,3470 3182,3513C3171,3543 3172,3546 3200,3568C3234,3595 3231,3610 3191,3610C3161,3610 3140,3626 3140,3650C3140,3659 3133,3675 3126,3686C3112,3704 3110,3703 3093,3663ZM3130,3627C3130,3617 3137,3607 3145,3605C3196,3589 3194,3591 3174,3569C3163,3557 3157,3537 3158,3524C3161,3501 3160,3501 3136,3511C3116,3520 3104,3520 3084,3511C3059,3500 3058,3501 3064,3523C3068,3540 3064,3553 3050,3565C3023,3589 3025,3600 3055,3600C3074,3600 3083,3608 3095,3637C3108,3667 3113,3672 3120,3660C3125,3652 3130,3637 3130,3627Z" style="fill-rule:nonzero;"/>
    </g>
    <g transform="matrix(0.663863,0,0,0.663863,-221.411,-323.602)">
        <path d="M354.345,500.647C354.345,501.647 355.045,502.647 355.845,502.847C360.945,504.447 360.745,504.247 358.745,506.447C357.645,507.647 357.045,509.647 357.145,510.947C357.445,513.247 357.345,513.247 354.945,512.247C352.945,511.347 351.745,511.347 349.745,512.247C347.245,513.347 347.145,513.247 347.745,511.047C348.145,509.347 347.745,508.047 346.345,506.847C343.645,504.447 343.845,503.347 346.845,503.347C348.745,503.347 349.645,502.547 350.845,499.647C352.145,496.647 352.645,496.147 353.345,497.347C353.845,498.147 354.345,499.647 354.345,500.647Z" style="fill:rgb(246,244,175);"/>
    </g>
</svg>
