<?xml version="1.0" encoding="UTF-8" standalone="no"?>
<!DOCTYPE svg PUBLIC "-//W3C//DTD SVG 1.1//EN" "http://www.w3.org/Graphics/SVG/1.1/DTD/svg11.dtd">
<svg width="100%" height="100%" viewBox="0 0 33 33" version="1.1" xmlns="http://www.w3.org/2000/svg" xmlns:xlink="http://www.w3.org/1999/xlink" xml:space="preserve" xmlns:serif="http://www.serif.com/" style="fill-rule:evenodd;clip-rule:evenodd;stroke-linejoin:round;stroke-miterlimit:2;">
    <g transform="matrix(0.144914,0,0,-0.144914,-597.245,750.614)">
        <path d="M4216,5140C4201,5103 4198,5100 4160,5100C4113,5100 4111,5092 4146,5059C4168,5038 4171,5030 4165,4993C4158,4945 4165,4941 4203,4970L4229,4991L4269,4970C4314,4948 4325,4955 4309,4997C4300,5022 4302,5027 4324,5045C4359,5073 4357,5087 4315,5094C4285,5100 4277,5108 4264,5141C4255,5162 4244,5180 4240,5180C4236,5180 4225,5162 4216,5140ZM4256,5118C4264,5092 4272,5084 4293,5082C4325,5078 4328,5065 4299,5050C4283,5041 4280,5033 4285,5009L4292,4978L4262,4994C4237,5007 4230,5007 4212,4994C4189,4978 4176,4988 4190,5010C4196,5020 4191,5033 4173,5052C4152,5074 4150,5081 4162,5085C4170,5088 4183,5090 4191,5088C4198,5086 4211,5100 4219,5118C4227,5135 4237,5150 4240,5150C4244,5150 4251,5135 4256,5118Z" style="fill-rule:nonzero;"/>
    </g>
</svg>
