<?xml version="1.0" encoding="UTF-8" standalone="no"?>
<!DOCTYPE svg PUBLIC "-//W3C//DTD SVG 1.1//EN" "http://www.w3.org/Graphics/SVG/1.1/DTD/svg11.dtd">
<svg width="100%" height="100%" viewBox="0 0 50 30" version="1.1" xmlns="http://www.w3.org/2000/svg" xmlns:xlink="http://www.w3.org/1999/xlink" xml:space="preserve" xmlns:serif="http://www.serif.com/" style="fill-rule:evenodd;clip-rule:evenodd;stroke-linejoin:round;stroke-miterlimit:2;">
    <g transform="matrix(0.296519,0,0,0.296761,-58.4961,-69.4322)">
        <path d="M226.5,236.2C227.9,237.5 230.1,241.4 231.4,245C239.9,268.6 254.9,291.7 261.1,290.8L263.5,290.5L263.8,271.2C264.1,250.9 263.8,249.5 258.9,243.1C256.5,240 256.5,236.3 258.9,235C260,234.4 267.6,234 276.4,234C297.5,234 296,232 296,258.9C296,270.4 296.3,280.5 296.6,281.4C297.8,284.4 301.5,283.1 306.7,277.7C313,271.3 319,262 326.4,247.3C331.6,236.8 332.2,236 335.8,234.9C338,234.3 344,233.9 349.9,234.2C358.7,234.4 360.4,234.8 361.6,236.4C362.4,237.5 362.8,239.3 362.4,240.4C361,245.8 353.8,258.8 345.3,271.7C340.2,279.5 336,286.9 336,288.1C336,289.4 338.7,293.1 342.8,297.4C350.7,305.8 360.7,318 363.8,323.1C366.6,327.8 366.6,331.5 363.8,333.4C361.1,335.3 340.2,335.7 336.7,333.9C335.5,333.3 329.3,327.4 322.9,321C316.5,314.5 309.4,308.2 307.2,307.1C302.3,304.6 297.5,304.4 296.6,306.6C296.3,307.5 296,312.9 296,318.6C296,324.4 295.6,330 295,331C292.8,335.1 284,336 271.8,333.5C258.2,330.6 246.9,323.9 235.5,311.9C216.9,292.3 194.3,248.1 197.6,237.8C198.5,234.9 201.5,234.1 213.2,234.1C222.9,234 224.1,234.2 226.5,236.2Z" style="fill:white;"/>
    </g>
</svg>
