<?xml version="1.0" encoding="UTF-8" standalone="no"?>
<!DOCTYPE svg PUBLIC "-//W3C//DTD SVG 1.1//EN" "http://www.w3.org/Graphics/SVG/1.1/DTD/svg11.dtd">
<svg width="100%" height="100%" viewBox="0 0 30 30" version="1.1" xmlns="http://www.w3.org/2000/svg" xmlns:xlink="http://www.w3.org/1999/xlink" xml:space="preserve" xmlns:serif="http://www.serif.com/" style="fill-rule:evenodd;clip-rule:evenodd;stroke-linejoin:round;stroke-miterlimit:2;">
    <g transform="matrix(0.088851,0,0,0.0858377,-7.74585,-6.99148)">
        <path d="M307,83.9C342.9,88.4 352.3,91.2 369.5,102.6C386.6,113.8 403.1,132 411.7,148.8C419.6,164.5 423.8,189.8 424.7,226.2C425.4,257.6 423.1,283.1 417.5,305.5C412.2,326.2 393.6,350.2 370.5,366C353.3,377.7 344.8,380.3 310,385.1C298.2,386.7 287,387.3 262.8,387.7L231.1,388.3L212.3,407.8C202,418.5 192.2,428.2 190.5,429.2C184.4,432.9 175.6,430.5 171.3,424.1C169.1,420.8 169,419.8 169,400.3L169,379.8L165.8,378.7C158.9,376.3 143.8,368 136.6,362.6C116.7,347.9 99.1,324 94.5,305.5C88.9,282.8 86.6,257.5 87.3,226.2C87.9,200.6 89.7,184.6 94,166.2C101.3,135.2 132.4,102.6 165.9,90.9C174.5,87.9 200.4,84 228,81.6C230.5,81.4 245.8,81.4 262,81.6C283.6,81.8 295.7,82.4 307,83.9ZM229.5,112C206,113.8 183.7,117.1 174.2,120.2C156.8,125.8 133.8,147.4 125.9,165.8C123.3,171.7 119.5,193.3 117.9,211C115.8,234.9 117.6,265.9 122.5,291.5C127,314.8 148.3,338.7 173.7,348.9L180.5,351.7L181,384.1C181.3,401.9 181.7,416.6 181.8,416.7C181.9,416.9 183.1,417 184.4,417C186,417 189,414.5 194.5,408.7C198.8,404.2 211.7,391 223.1,379.4L243.9,358.3L265.7,357.7C288.4,357 305.6,355.4 324.7,352.1C342.2,349.1 354.3,342.6 368.3,328.4C382.4,314.3 387.1,305 390.6,284.7C396.5,250.5 396.5,218.6 390.5,184C389.2,176.6 387.2,168.3 386.1,165.6C378.2,147.5 355.1,125.8 337.7,120.1C318.2,113.8 261.3,109.5 229.5,112ZM280,195.1C288.8,199 293.9,205.8 296,216.6C297.4,223.5 296.3,227 293,227C289.5,227 288.1,225.8 287.4,222.2C286.2,214.7 283.8,209 280.9,206.6C278.1,204.2 276.3,203.5 267,201.3C264.1,200.6 263.4,199.9 263.2,197.5C262.5,191.6 269.6,190.6 280,195.1ZM201.7,158.5C205.8,159.7 225.5,186 228.1,193.7C229.9,199.4 228.7,206 225.3,209C223.7,210.4 220.7,212.9 218.7,214.6C213.9,218.8 213.3,221.7 215.8,229.1C219.5,240.1 225.9,249.9 235.5,259.6C243.2,267.3 245.9,269.3 254,273.2C269.8,280.9 272.3,280.7 280.9,271C287.6,263.4 291.7,261.9 298.1,264.7C302.9,266.9 323.3,280.8 329.3,286.2C334.9,291 335.6,295.3 332,302.7C327.1,313 317.6,321.8 308.5,324.5C304.7,325.7 303.6,325.6 297,323.4C286.4,319.8 262,307.4 249.9,299.5C218.4,278.9 195.3,251.7 178.3,215.3C171.2,200 168,191.3 168,187.3C168,177.5 182.1,161.9 194.5,157.9C196.5,157.2 197.7,157.3 201.7,158.5ZM280.1,173.4C302.1,181.1 316.2,199.7 317.6,223C318.2,232.4 317.5,234.2 313.5,234.2C310.1,234.2 309,232.6 309,227.5C309,225.3 308.3,220.5 307.6,216.9C303.6,198 289.4,184.5 269.5,180.6C257.2,178.1 257.2,178.1 256.5,176C256.2,175 256.4,173.1 257.1,171.9C258.1,169.9 258.8,169.8 265.5,170.3C269.4,170.6 276,172 280.1,173.4ZM271.7,149.6C305.2,156.5 330.7,181.5 337.4,214C339.7,225.4 340.6,239.6 339,241.5C337.4,243.4 333.6,243.5 332.1,241.6C331.5,240.9 330.5,235.7 330,230.1C328.7,216.6 326.6,208 322.5,199.5C315.4,184.7 303.3,172.6 288.5,165.5C278.3,160.6 274.4,159.6 261,158C255.8,157.3 250.9,156.3 250.3,155.8C248.7,154.5 248.6,150.8 250.2,149.2C251.9,147.5 262.6,147.7 271.7,149.6Z" style="fill:white;"/>
    </g>
</svg>
