<?xml version="1.0" encoding="UTF-8" standalone="no"?>
<!DOCTYPE svg PUBLIC "-//W3C//DTD SVG 1.1//EN" "http://www.w3.org/Graphics/SVG/1.1/DTD/svg11.dtd">
<svg width="100%" height="100%" viewBox="0 0 50 30" version="1.1" xmlns="http://www.w3.org/2000/svg" xmlns:xlink="http://www.w3.org/1999/xlink" xml:space="preserve" xmlns:serif="http://www.serif.com/" style="fill-rule:evenodd;clip-rule:evenodd;stroke-linejoin:round;stroke-miterlimit:2;">
    <g transform="matrix(0.189062,0,0,0.161929,-27.4983,-26.918)">
        <path d="M337.5,167.5C377.8,169.5 386.8,171.3 396.1,178.9C401,183 405.5,192 407.6,202C409.1,209.2 409.4,217.2 409.8,253.5C410.2,297.1 409.6,308.7 406.3,321.5C404.4,329.1 402.8,332.2 397.9,337.5C386.9,349.5 369.9,351.5 279.5,351.5C218.4,351.5 198.3,350.7 179.9,347.5C164,344.8 154.4,336.3 150.5,321.5C144.7,299.1 143.7,239.9 148.5,207.3C150.5,194.6 152.2,189.6 156.8,183.5C162.2,176.4 169.1,172.6 180.3,170.5C202,166.5 285.6,164.9 337.5,167.5ZM252,259C252,291.8 252.2,298.1 253.4,297.8C254.1,297.6 269.6,288.9 287.8,278.5C312.9,264.1 320.6,259.2 319.7,258.4C318.3,257.1 256.4,221.5 253.8,220.5C252.1,219.8 252,222.1 252,259Z" style="fill:black;"/>
    </g>
</svg>
